<?xml version="1.0" standalone="no"?>
<!DOCTYPE svg PUBLIC "-//W3C//DTD SVG 20010904//EN"
 "http://www.w3.org/TR/2001/REC-SVG-20010904/DTD/svg10.dtd">
<svg version="1.0" xmlns="http://www.w3.org/2000/svg"
 width="1581.000000pt" height="1505.000000pt" viewBox="0 0 1581.000000 1505.000000"
 preserveAspectRatio="xMidYMid meet">

<g transform="translate(0.000000,1505.000000) scale(0.100000,-0.100000)"
fill="#000000" stroke="none">
<path d="M7710 11704 c-19 -2 -98 -9 -175 -15 -695 -54 -1395 -305 -1995 -717
-89 -61 -249 -179 -260 -191 -3 -3 -30 -26 -60 -51 -136 -111 -381 -355 -508
-507 -257 -309 -477 -658 -622 -988 -12 -27 -28 -64 -35 -81 -56 -124 -152
-410 -198 -594 -55 -216 -56 -197 7 -259 l53 -53 22 89 c107 424 345 917 625
1288 172 229 454 523 651 680 28 22 52 42 55 45 15 15 100 77 215 157 788 545
1804 791 2760 668 463 -60 845 -171 1250 -365 1233 -591 2056 -1762 2175
-3095 50 -553 -38 -1168 -239 -1680 -36 -91 -30 -78 -114 -255 -115 -244 -314
-558 -479 -756 -570 -684 -1316 -1145 -2176 -1345 l-142 -33 106 -107 c87 -87
103 -108 88 -112 -85 -24 97 14 231 49 613 156 1170 444 1670 863 115 96 377
359 476 476 567 674 904 1483 980 2350 24 281 13 679 -26 952 -201 1380 -1055
2553 -2304 3167 -69 34 -146 70 -171 80 -173 70 -218 87 -326 124 -112 38
-155 51 -346 101 -148 39 -409 83 -608 101 -113 11 -522 21 -580 14z"/>
<path d="M6690 10404 c-82 -35 -142 -106 -176 -204 -22 -65 -25 -219 -6 -320
6 -36 19 -119 27 -185 9 -66 25 -181 35 -255 11 -74 26 -189 35 -255 38 -278
46 -339 70 -515 14 -102 32 -234 40 -295 8 -60 23 -177 35 -260 57 -410 57
-412 4 -454 -33 -26 -79 -27 -120 -2 -25 15 -39 39 -73 127 -24 60 -47 118
-51 129 -13 30 -78 203 -220 580 -181 481 -384 1001 -421 1082 -61 129 -187
223 -299 223 -57 0 -141 -35 -176 -72 -47 -51 -62 -80 -73 -144 -13 -71 -4
-136 38 -272 75 -245 216 -718 256 -857 168 -586 295 -1062 295 -1104 0 -55
-43 -95 -102 -93 -26 0 -43 11 -80 51 -104 113 -370 473 -603 817 -157 232
-279 400 -314 432 -59 55 -127 84 -196 85 -127 1 -216 -87 -215 -213 1 -59 31
-127 151 -340 158 -280 280 -505 524 -970 87 -166 406 -807 485 -975 129 -273
232 -503 314 -700 143 -340 175 -404 275 -545 213 -301 518 -504 901 -599 241
-60 694 -55 955 10 417 105 721 310 1040 704 129 160 344 378 507 513 75 63
235 166 673 432 61 37 162 100 225 140 200 128 413 255 540 322 128 68 156
119 109 198 -43 72 -107 113 -221 142 -71 18 -101 20 -203 15 -225 -11 -386
-58 -650 -187 -329 -162 -617 -246 -900 -266 -206 -14 -331 31 -454 162 -101
108 -162 247 -198 448 -31 181 -28 978 7 1671 26 517 42 785 70 1166 13 173 6
240 -32 317 -90 179 -312 217 -452 77 -94 -94 -96 -101 -191 -800 -36 -264
-104 -754 -121 -875 -43 -299 -77 -524 -90 -599 -7 -46 -14 -88 -14 -92 0 -23
-42 -49 -80 -49 -56 0 -71 28 -104 207 -16 82 -36 191 -46 243 -10 52 -39 219
-64 370 -64 387 -86 523 -156 970 -6 36 -28 180 -50 320 -40 265 -59 335 -112
415 -38 58 -116 121 -166 135 -53 14 -141 12 -182 -6z m478 -3777 c9 -7 -8
-16 -59 -34 -197 -66 -352 -229 -410 -430 -17 -61 -35 -173 -28 -173 3 0 51
20 108 45 57 25 120 50 141 56 29 9 65 40 146 127 113 120 289 282 306 282 6
0 -14 -21 -43 -47 -52 -45 -211 -203 -293 -290 l-39 -42 79 25 c44 13 83 23
88 21 4 -1 -33 -15 -84 -30 -58 -18 -100 -36 -112 -50 -37 -43 -215 -283 -233
-313 -17 -30 -17 -32 5 -75 12 -24 40 -68 62 -98 l40 -53 77 7 c69 6 256 34
338 51 30 6 108 80 259 245 55 60 212 263 249 322 17 26 34 47 39 47 5 0 24
-9 43 -21 l33 -21 -21 -36 c-24 -40 -122 -183 -144 -210 -7 -9 -51 -61 -97
-115 -124 -148 -132 -158 -117 -153 283 90 434 150 445 175 12 28 16 215 6
258 -9 39 -8 41 9 30 24 -15 29 -35 36 -159 3 -60 7 -108 9 -108 7 0 133 75
158 94 l30 23 48 -30 c26 -17 48 -34 48 -38 0 -12 -65 -53 -204 -129 -107 -59
-120 -69 -135 -105 -79 -197 -237 -348 -441 -422 -68 -24 -88 -27 -225 -27
-116 -1 -162 3 -203 16 l-54 17 -60 -40 c-33 -23 -104 -62 -157 -87 -84 -40
-106 -46 -178 -50 l-83 -4 -35 35 c-34 34 -35 38 -35 108 0 64 17 145 44 210
6 13 -1 18 -31 23 -144 26 -233 87 -233 160 0 74 87 178 221 267 l76 50 6 77
c23 282 214 521 491 614 77 26 86 26 114 5z m472 -362 c-47 -7 -105 -16 -130
-20 -25 -4 -42 -5 -39 -2 8 9 167 35 214 35 24 0 5 -5 -45 -13z m-225 -40
c-65 -17 -103 -17 -45 0 25 7 56 13 70 13 14 0 3 -6 -25 -13z m-115 -25 c-34
-11 -60 -11 -35 0 11 5 29 8 40 8 16 0 15 -2 -5 -8z m-75 -20 c-11 -5 -27 -9
-35 -9 -9 0 -8 4 5 9 11 5 27 9 35 9 9 0 8 -4 -5 -9z"/>
<path d="M6845 6051 c-117 -49 -175 -79 -175 -90 0 -19 29 -162 35 -172 4 -5
25 16 47 47 50 72 90 123 151 197 27 31 45 57 40 57 -4 0 -48 -18 -98 -39z"/>
<path d="M6484 5851 c-135 -110 -146 -204 -29 -257 31 -15 73 -28 93 -31 35
-5 38 -3 55 31 16 35 16 38 -8 111 -13 41 -27 101 -31 135 -4 33 -9 60 -13 60
-3 0 -34 -22 -67 -49z"/>
<path d="M7795 5648 c-100 -37 -209 -71 -348 -108 -99 -26 -114 -33 -170 -82
-118 -101 -114 -96 -91 -105 10 -4 69 -8 129 -7 190 0 330 58 462 191 48 48
109 131 101 138 -2 1 -39 -11 -83 -27z"/>
<path d="M6621 5584 c-14 -32 -11 -37 21 -32 24 3 24 4 8 31 l-17 27 -12 -26z"/>
<path d="M7037 5460 c-32 -4 -60 -10 -63 -13 -3 -3 12 -15 34 -26 l40 -20 38
34 c22 19 32 34 24 33 -8 0 -41 -4 -73 -8z"/>
<path d="M6551 5408 c-19 -64 -22 -97 -12 -136 20 -72 85 -90 195 -52 99 34
210 100 168 100 -5 0 -41 27 -80 60 l-72 60 -94 0 -94 0 -11 -32z"/>
<path d="M8930 7850 l0 -470 90 0 90 0 0 470 0 470 -90 0 -90 0 0 -470z"/>
<path d="M9240 8250 l0 -70 160 0 160 0 0 -400 0 -400 85 0 85 0 0 400 0 400
160 0 160 0 0 70 0 70 -405 0 -405 0 0 -70z"/>
<path d="M10180 7850 l0 -472 273 4 c296 5 320 9 429 68 58 32 147 119 174
172 44 84 63 225 45 322 -30 162 -124 274 -291 346 -53 23 -65 24 -342 28
l-288 3 0 -471z m555 300 c126 -48 200 -167 193 -310 -6 -131 -65 -223 -176
-277 -54 -26 -66 -28 -229 -31 l-173 -4 0 327 0 327 163 -4 c137 -4 171 -8
222 -28z"/>
<path d="M8994 7181 c-42 -19 -74 -67 -74 -111 0 -36 31 -90 61 -105 43 -23
121 -19 154 7 l28 22 -24 19 c-22 18 -24 18 -36 1 -20 -27 -81 -24 -104 5 -25
30 -24 76 1 101 24 24 82 27 100 5 10 -12 15 -12 36 2 23 15 24 17 8 34 -15
17 -72 39 -99 39 -5 0 -28 -9 -51 -19z"/>
<path d="M9254 7181 c-27 -12 -46 -30 -57 -54 -21 -44 -21 -70 -1 -113 45 -95
205 -84 235 16 20 65 -3 118 -61 148 -53 27 -63 27 -116 3z m108 -58 c44 -39
8 -126 -52 -126 -59 0 -91 69 -54 121 19 27 78 30 106 5z"/>
<path d="M9746 7180 c-34 -17 -41 -18 -59 -5 -25 17 -89 20 -118 5 -13 -7 -19
-7 -19 0 0 5 -13 10 -30 10 l-30 0 0 -120 0 -120 30 0 30 0 0 78 c0 90 14 112
68 112 42 0 52 -22 52 -114 l0 -76 30 0 30 0 0 76 c0 93 10 114 53 114 50 0
57 -14 57 -107 l0 -83 30 0 30 0 0 85 c0 101 -15 138 -61 154 -41 14 -47 14
-93 -9z"/>
<path d="M10060 7184 c-22 -10 -36 -11 -38 -4 -2 5 -15 10 -28 10 l-24 0 0
-165 0 -165 30 0 c30 0 30 1 30 55 0 51 10 69 25 45 10 -16 93 -12 121 6 79
52 67 183 -21 220 -42 17 -51 17 -95 -2z m92 -61 c44 -39 8 -126 -52 -126 -59
0 -91 69 -54 121 19 27 78 30 106 5z"/>
<path d="M10317 7185 c-48 -17 -49 -18 -34 -38 10 -14 18 -15 46 -7 42 12 78
4 91 -20 15 -29 13 -30 -40 -30 -28 0 -64 -7 -80 -15 -25 -13 -30 -22 -30 -54
0 -52 23 -71 86 -71 28 0 55 5 62 12 9 9 12 9 12 0 0 -7 11 -12 25 -12 25 0
25 1 25 91 0 103 -8 125 -55 145 -42 17 -59 17 -108 -1z m113 -147 c0 -24 -34
-48 -67 -48 -35 0 -50 17 -39 45 7 19 106 22 106 3z"/>
<path d="M10648 7186 c-21 -8 -38 -10 -38 -5 0 5 -13 9 -30 9 l-30 0 0 -120 0
-120 30 0 30 0 0 73 c0 92 15 117 70 117 51 0 60 -17 60 -114 l0 -76 30 0 30
0 -1 78 c-1 96 -8 120 -39 143 -36 26 -70 30 -112 15z"/>
<path d="M10830 7184 c0 -3 23 -60 52 -125 l52 -120 -22 -21 c-18 -18 -25 -20
-46 -10 -22 10 -27 9 -37 -10 -14 -27 2 -38 55 -38 54 0 76 29 146 190 47 107
56 136 44 138 -29 7 -41 -7 -74 -87 -18 -44 -36 -78 -40 -76 -4 2 -22 40 -41
84 -31 73 -37 81 -61 81 -16 0 -28 -3 -28 -6z"/>
<path d="M4700 4836 c0 -2 8 -10 18 -17 15 -13 16 -12 3 4 -13 16 -21 21 -21
13z"/>
<path d="M4780 4745 c13 -14 26 -25 28 -25 3 0 -5 11 -18 25 -13 14 -26 25
-28 25 -3 0 5 -11 18 -25z"/>
<path d="M4885 4630 c10 -11 20 -20 23 -20 3 0 -3 9 -13 20 -10 11 -20 20 -23
20 -3 0 3 -9 13 -20z"/>
<path d="M4970 4545 c30 -30 57 -55 59 -55 3 0 -19 25 -49 55 -30 30 -57 55
-59 55 -3 0 19 -25 49 -55z"/>
<path d="M5120 4405 c13 -14 26 -25 28 -25 3 0 -5 11 -18 25 -13 14 -26 25
-28 25 -3 0 5 -11 18 -25z"/>
<path d="M5190 4346 c0 -2 8 -10 18 -17 15 -13 16 -12 3 4 -13 16 -21 21 -21
13z"/>
<path d="M5990 3806 c0 -2 7 -7 16 -10 8 -3 12 -2 9 4 -6 10 -25 14 -25 6z"/>
<path d="M6030 3786 c0 -2 7 -7 16 -10 8 -3 12 -2 9 4 -6 10 -25 14 -25 6z"/>
<path d="M6868 3473 c7 -3 16 -2 19 1 4 3 -2 6 -13 5 -11 0 -14 -3 -6 -6z"/>
<path d="M6948 3453 c7 -3 16 -2 19 1 4 3 -2 6 -13 5 -11 0 -14 -3 -6 -6z"/>
<path d="M7038 3433 c7 -3 16 -2 19 1 4 3 -2 6 -13 5 -11 0 -14 -3 -6 -6z"/>
<path d="M7138 3413 c7 -3 16 -2 19 1 4 3 -2 6 -13 5 -11 0 -14 -3 -6 -6z"/>
<path d="M8658 3413 c7 -3 16 -2 19 1 4 3 -2 6 -13 5 -11 0 -14 -3 -6 -6z"/>
<path d="M7198 3403 c7 -3 16 -2 19 1 4 3 -2 6 -13 5 -11 0 -14 -3 -6 -6z"/>
<path d="M8598 3403 c7 -3 16 -2 19 1 4 3 -2 6 -13 5 -11 0 -14 -3 -6 -6z"/>
<path d="M7248 3393 c6 -2 18 -2 25 0 6 3 1 5 -13 5 -14 0 -19 -2 -12 -5z"/>
<path d="M8538 3393 c6 -2 18 -2 25 0 6 3 1 5 -13 5 -14 0 -19 -2 -12 -5z"/>
<path d="M7328 3383 c6 -2 18 -2 25 0 6 3 1 5 -13 5 -14 0 -19 -2 -12 -5z"/>
<path d="M8463 3383 c9 -2 23 -2 30 0 6 3 -1 5 -18 5 -16 0 -22 -2 -12 -5z"/>
<path d="M7388 3373 c6 -2 18 -2 25 0 6 3 1 5 -13 5 -14 0 -19 -2 -12 -5z"/>
<path d="M8398 3373 c6 -2 18 -2 25 0 6 3 1 5 -13 5 -14 0 -19 -2 -12 -5z"/>
<path d="M7493 3363 c9 -2 25 -2 35 0 9 3 1 5 -18 5 -19 0 -27 -2 -17 -5z"/>
<path d="M8283 3363 c9 -2 25 -2 35 0 9 3 1 5 -18 5 -19 0 -27 -2 -17 -5z"/>
<path d="M7633 3353 c15 -2 37 -2 50 0 12 2 0 4 -28 4 -27 0 -38 -2 -22 -4z"/>
<path d="M8133 3353 c15 -2 37 -2 50 0 12 2 0 4 -28 4 -27 0 -38 -2 -22 -4z"/>
<path d="M7843 3343 c37 -2 97 -2 135 0 37 2 6 3 -68 3 -74 0 -105 -1 -67 -3z"/>
</g>
</svg>
